<?xml version="1.0"?><svg width="744.09448" height="1052.3622" xmlns="http://www.w3.org/2000/svg" xmlns:xlink="http://www.w3.org/1999/xlink">
 <defs>
  <linearGradient id="linearGradient4206">
   <stop stop-color="#0089af" offset="0" id="stop4207"/>
   <stop stop-color="#00005c" offset="1" id="stop4208"/>
  </linearGradient>
  <linearGradient id="linearGradient1708">
   <stop stop-color="#5e6700" offset="0" id="stop1709"/>
   <stop stop-color="#005f00" offset="1" id="stop1710"/>
  </linearGradient>
  <radialGradient xlink:href="#linearGradient1708" r="280.08582" id="radialGradient1712" gradientUnits="userSpaceOnUse" gradientTransform="scale(1.003037,0.996972)" fy="165.74794" fx="246.84595" cy="165.74794" cx="246.84595"/>
  <radialGradient xlink:href="#linearGradient4206" r="250.60762" id="radialGradient4210" gradientUnits="userSpaceOnUse" fy="188.82213" fx="269.58505" cy="188.82213" cx="269.58505"/>
  <radialGradient xlink:href="#linearGradient4206" r="250.60762" id="radialGradient4214" gradientUnits="userSpaceOnUse" fy="188.82213" fx="269.58505" cy="188.82213" cx="269.58505"/>
  <radialGradient xlink:href="#linearGradient1708" r="280.08582" id="radialGradient4215" gradientUnits="userSpaceOnUse" gradientTransform="scale(1.003037,0.996972)" fy="165.74794" fx="246.84595" cy="165.74794" cx="246.84595"/>
 </defs>
 <g>
  <title>Layer 1</title>
  <g id="layer1"/>
  <g externalResourcesRequired="false" transform="matrix(2.99416 0 0 2.99416 -645.695 -294.187)" id="g4211">
   <path fill="#bfbfbf" id="path1086" d="m327.159027,374.396576c-7.594543,-0.857788 -16.539551,-2.616455 -16.986542,-3.339722c-0.271179,-0.438782 0.964874,-1.080688 2.746735,-1.426453c4.261993,-0.827087 4.335297,-0.827271 10.853058,-0.030182c3.706238,0.453217 5.844269,0.312622 6.293304,-0.41391c0.479248,-0.775452 1.851044,-0.631836 4.645752,0.486389c3.555969,1.422821 6.335754,1.489258 10.947693,0.261658c0.876648,-0.233337 1.37912,0.171173 1.209106,0.973419c-0.204468,0.964905 0.241119,1.148071 1.5,0.616638c0.984985,-0.415802 3.1409,-0.683136 4.790894,-0.594055l3,0.161957l-2.409973,-1.697357l-2.409973,-1.697357l2.288879,-0.84671c1.460266,-0.540192 2.793549,-0.427917 3.682892,0.310211c1.789215,1.484894 14.092346,0.425537 19.033081,-1.638824c1.957642,-0.817963 4.966888,-1.503143 6.687225,-1.522644c1.720337,-0.01947 4.252869,-0.678528 5.627869,-1.464539c2.779236,-1.588776 5,-1.909668 5,-0.722534c0,0.901245 -9.804108,5.268219 -18.5,8.240356c-11.809082,4.036163 -33.413361,5.991211 -48,4.343658zm26.710815,-16.047821c-3.592468,-1.475983 -5.599945,-5.044952 -3.973206,-7.06366c0.71051,-0.881714 0.602936,-1.254517 -0.365173,-1.26532c-0.964417,-0.010773 -1.029968,-0.233734 -0.22049,-0.75c0.633575,-0.404083 1.457031,-2.98468 1.829926,-5.73468c0.372864,-2.75 1.265686,-7.024994 1.984039,-9.5c0.718323,-2.475006 1.299164,-5.399994 1.29068,-6.5c-0.016296,-2.118652 0.859711,-8.789856 1.881683,-14.329803c0.818878,-4.439087 -1.15387,-7.882446 -5.90448,-10.306c-2.107178,-1.075012 -4.07605,-2.721741 -4.375275,-3.659393c-1.486511,-4.65799 -4.944,-11.630951 -7.69931,-15.527588c-2.689758,-3.803925 -0.853546,-11.932526 3.592102,-15.901611c2.68277,-2.395142 3.141174,-3.442383 2.872833,-6.562775c-0.175629,-2.042053 -0.682404,-3.937836 -1.126221,-4.21283c-0.443817,-0.275024 -0.849915,-0.950012 -0.902435,-1.500015c-0.052521,-0.549988 -0.65799,-1 -1.34549,-1c-0.6875,0 -1.14151,0.550461 -1.008942,1.223221c0.312714,1.5867 -5.682343,0.478333 -7.558014,-1.397324c-0.729248,-0.729233 -1.743744,-1.325882 -2.254486,-1.325882c-0.510712,0 -0.928558,-0.596573 -0.928558,-1.325699c0,-2.142731 -4.222504,-5.401611 -8,-6.174316c-1.924988,-0.393753 -4.486328,-1.621185 -5.691833,-2.727631c-1.46936,-1.348602 -3.863342,-2.101913 -7.262665,-2.285324c-5.210144,-0.281113 -10.568481,-2.831818 -9.518341,-4.530975c0.325653,-0.526932 -0.755676,-0.956055 -2.409119,-0.956055c-3.746582,0 -4.901947,-1.676315 -2.46817,-3.581024c1.017578,-0.796371 1.360077,-1.328934 0.761139,-1.183456c-0.907806,0.220459 -4.751434,-3.683411 -7.61618,-7.735535c-0.388824,-0.549988 -2.074371,-2.574997 -3.745636,-4.499985l-3.038696,-3.500015l1.567993,3.25c0.862396,1.787506 1.970917,3.250015 2.463379,3.250015c0.492432,0 0.653809,0.629471 0.358582,1.398849c-0.295227,0.769363 -0.056122,1.695908 0.531372,2.059006c0.587494,0.363098 1.068176,1.378357 1.068176,2.256134c0,1.389969 -0.258148,1.36235 -2,-0.214005c-1.100006,-0.995483 -2,-2.429337 -2,-3.186356c0,-0.757034 -0.688416,-1.640579 -1.529785,-1.96344c-0.934174,-0.358475 -1.307709,-1.28688 -0.95932,-2.38446c0.313751,-0.988586 0.102142,-2.086853 -0.470215,-2.440598c-0.572357,-0.353745 -1.04068,-1.450912 -1.04068,-2.438126c0,-0.987228 -1.084076,-2.964706 -2.409088,-4.394409c-3.675354,-3.965775 -4.686401,-10.370499 -2.491394,-15.78241c2.01535,-4.968887 2.405212,-8.910187 0.881439,-8.910187c-0.575256,0 -0.757721,-1.041275 -0.418976,-2.390915c0.330048,-1.314987 0.113617,-2.691559 -0.480957,-3.059006c-0.598114,-0.369675 -1.081024,0.02829 -1.081024,0.8909c0,0.857452 -0.467041,1.559021 -1.037842,1.559021c-0.570831,0 -0.950836,-1.012512 -0.844482,-2.250015c0.366974,-4.269943 -0.123688,-5.749985 -1.906219,-5.749985c-2.270844,0 -9.32489,3.565506 -10.356567,5.234756c-0.430054,0.695892 -1.135864,1.270691 -1.56842,1.277344c-0.432556,0.006668 -2.86673,1.451401 -5.409271,3.210526c-2.542542,1.75914 -4.887024,2.934204 -5.209961,2.611252c-0.322952,-0.322937 0.854202,-1.558502 2.615875,-2.745682c1.761673,-1.18721 3.356903,-3.042709 3.544937,-4.123367c0.188049,-1.080673 1.991165,-3.426315 4.006912,-5.21257c2.015778,-1.786255 2.816132,-2.952042 1.778595,-2.590652c-2.872589,1.00058 -1.513916,-1.894272 1.602631,-3.414566c1.412659,-0.689133 2.837555,-2.264145 3.166412,-3.5c0.790527,-2.970901 7.698425,-7.737915 11.277191,-7.782181c1.562103,-0.019318 5.540222,-0.608826 8.84021,-1.310013c3.299988,-0.701187 7.657471,-1.162842 9.683258,-1.025909c3.027039,0.204605 3.658813,-0.075302 3.546143,-1.571167c-0.111176,-1.475891 -0.46817,-1.613342 -1.887756,-0.726791c-0.962891,0.601318 -2.060272,0.783707 -2.43866,0.405319c-0.955872,-0.955872 1.519531,-3.736298 3.326447,-3.736298c0.870636,0 1.259521,-0.586426 0.940369,-1.418106c-0.35849,-0.934235 0.713928,-1.97197 3.143005,-3.041351c2.027954,-0.892776 2.787201,-1.418243 1.687195,-1.167679c-2.639435,0.601212 -8.556641,2.674118 -10.73642,3.761169c-0.955048,0.476273 -2.642548,0.865967 -3.75,0.865967c-1.107483,0 -2.01358,0.396652 -2.01358,0.881454c0,0.868988 -7.127838,3.729431 -12,4.815674c-2.16507,0.482697 -2.031097,0.235062 1,-1.848358c10.828278,-7.442795 20.453857,-11.540787 35.290588,-15.024612c7.60672,-1.786133 12.341888,-2.167923 27.209412,-2.193817c17.938232,-0.03125 31.396179,1.579727 28.443176,3.404755c-0.741211,0.458115 -1.724487,0.600052 -2.184998,0.31543c-0.460541,-0.284607 -5.510437,-0.652924 -11.222015,-0.818466c-8.716278,-0.25264 -10.295837,-0.069321 -9.83139,1.14093c0.304321,0.793076 1.11734,1.22551 1.806732,0.960968c1.71701,-0.65889 9.793091,3.555283 15.017487,7.836258c2.369171,1.941391 4.686127,3.529785 5.148773,3.529785c0.462616,0 1.425293,0.935349 2.139221,2.078568c1.136688,1.820084 1.054565,2.142258 -0.660187,2.590668c-2.57486,0.67334 -3.277466,4.737274 -1.627533,9.413727c0.725037,2.054916 1.100494,3.953918 0.834412,4.220016c-0.914276,0.914291 -6.823578,-2.68103 -10.676941,-6.496063c-2.121704,-2.100616 -4.338745,-3.522003 -4.926697,-3.158615c-0.590332,0.364838 -0.780914,0.194458 -0.425568,-0.380493c0.353943,-0.572662 -0.047028,-1.614288 -0.890991,-2.314728c-0.843964,-0.700424 -1.303131,-1.876419 -1.020355,-2.613297c0.288849,-0.752762 -0.143127,-1.339783 -0.985901,-1.339783c-0.824982,0 -1.759003,-0.675003 -2.075592,-1.500015c-0.316589,-0.824997 -1.054535,-1.499985 -1.639893,-1.499985c-0.585327,0 -1.794495,-0.660873 -2.687042,-1.468613c-1.195923,-1.082291 -2.40033,-1.23642 -4.578735,-0.585938c-1.625793,0.485443 -2.358185,0.92131 -1.627533,0.968597c2.155853,0.139481 9.315247,7.975403 9.005859,9.856827c-0.156403,0.951019 0.012207,2.200607 0.374695,2.776871c0.362488,0.576263 0.251678,1.701263 -0.246246,2.5c-0.769409,1.234299 -1.547394,1.114151 -5.18399,-0.800537c-2.353302,-1.239014 -5.039673,-2.251511 -5.969727,-2.25c-2.265625,0.003723 -3.315399,-1.865677 -1.449707,-2.581589c0.817322,-0.313644 1.743011,-1.239899 2.057068,-2.058334c0.428528,-1.116745 0.073517,-1.33017 -1.422668,-0.855286c-1.468414,0.466049 -1.993713,0.175873 -1.993713,-1.101288c0,-0.953735 -0.296112,-1.437958 -0.65799,-1.076065c-0.361908,0.361893 -1.149414,0.25032 -1.75,-0.24794c-0.75412,-0.625626 -1.088226,0.1745 -1.079773,2.585861c0.008026,2.283142 0.621063,3.83252 1.771057,4.476089c0.967316,0.541336 1.548065,1.32518 1.290558,1.741852c-0.257538,0.416672 0.745514,0.581314 2.228973,0.36586c1.818939,-0.264191 4.162445,0.597824 7.197174,2.647354c3.469116,2.342896 4.574066,2.703186 4.823334,1.572693c0.49292,-2.23558 1.428558,-1.816895 5.688232,2.54541c2.154572,2.206512 4.355286,3.865891 4.890442,3.6875c1.128265,-0.376083 3.738098,2.05867 6.146149,5.73381c1.684784,2.57132 4.129639,3.668381 2.934662,1.316849c-0.349335,-0.6875 0.299103,-0.187637 1.440979,1.110794c1.141937,1.298431 2.069305,3.098434 2.060883,4c-0.013275,1.423691 -0.142761,1.441986 -0.98468,0.139221c-0.861664,-1.333344 -0.979858,-1.333344 -1.063629,0c-0.064697,1.029449 -0.252502,1.10788 -0.598663,0.25c-0.806305,-1.998291 -5.14035,-1.563278 -4.976593,0.499512c0.087952,1.107803 -0.686401,1.866898 -2.111115,2.06955c-1.237488,0.176025 -2.25,0.797974 -2.25,1.382156c0,0.66188 -1.507294,0.85994 -4,0.525604c-3.266144,-0.438095 -4.004089,-0.23291 -4.022247,1.118332c-0.012207,0.910156 -0.902222,2.779831 -1.977753,4.154846c-1.075531,1.374985 -1.965515,3.117599 -1.977753,3.872437c-0.01886,1.163254 -0.286346,1.163254 -1.754974,0c-1.607483,-1.273239 -1.604492,-1.171616 0.041534,1.405807c1.954468,3.060318 1.617645,4.07132 -2.514893,7.548615c-2.821136,2.37384 -3.741211,6.46965 -1.732239,7.711258c1.469025,0.907898 3.081696,5.420883 2.356445,6.594345c-0.867065,1.402969 -3.496765,-1.079483 -5.03067,-4.748993c-0.947784,-2.267365 -2.165771,-3.289139 -4.470093,-3.75c-4.913391,-0.982681 -6.917358,-0.758774 -6.917358,0.772903c0,0.904526 -0.699463,1.223465 -1.960114,0.893799c-2.264282,-0.592117 -8.347382,2.873062 -10.540649,6.004349c-1.926331,2.750244 -1.901154,6.046204 0.078003,10.216995c1.841461,3.880585 3.332947,4.646439 7.446686,3.8237c2.058807,-0.411774 3.189087,-1.345795 3.597443,-2.972809c0.327515,-1.30484 1.109161,-2.406845 1.73703,-2.448929c0.627869,-0.042068 1.927307,-0.22699 2.887634,-0.410919c2.608612,-0.499649 3.026825,1.059097 1.2211,4.550995c-0.888031,1.71727 -1.360321,3.376587 -1.04953,3.687363c0.31076,0.310776 0.048615,1.187302 -0.58255,1.947845c-0.950348,1.145096 -0.498657,1.311264 2.627655,0.966751c6.192139,-0.682373 7.416138,0.029968 7.357452,4.281891c-0.09906,7.177017 2.23233,10.165237 6.252289,8.013824c1.325378,-0.709335 2.531799,-0.708221 3.861816,0.003586c2.572815,1.376923 2.692078,1.352631 4.877899,-0.993561c1.03952,-1.115814 2.744568,-2.202072 3.78894,-2.41391c1.044403,-0.211838 2.760223,-0.725388 3.812927,-1.141205c1.342224,-0.530151 1.698029,-0.406479 1.19101,0.41391c-0.397705,0.643478 -0.246521,1.169952 0.335938,1.169952c0.582458,0 1.059021,-0.423325 1.059021,-0.940704c0,-0.51738 1.205231,-0.315414 2.678314,0.448822c1.473053,0.764236 3.117584,1.118011 3.65451,0.786179c0.536896,-0.331818 0.686737,-0.134949 0.332947,0.4375c-0.353821,0.572449 0.364166,1.310837 1.59549,1.640854c3.14679,0.843414 3.944702,0.769608 3.281464,-0.303558c-0.316467,-0.511993 -0.048462,-1.256531 0.59549,-1.65451c0.731201,-0.45192 0.902893,-0.290146 0.457275,0.430908c-0.663361,1.073334 0.729187,1.550369 4.15451,1.423157c0.6875,-0.025543 1.258118,0.691071 1.268036,1.592453c0.025238,2.294357 6.840668,7.678635 10.678955,8.436478c3.868774,0.763855 7.303009,3.522186 7.303009,5.865631c0,0.945313 0.479309,2.014984 1.065155,2.377045c0.69693,0.430725 0.446838,1.401764 -0.72348,2.809021c-0.983734,1.182892 -1.15332,1.593475 -0.376862,0.912445c1.145477,-1.00473 2.608673,-0.580353 7.757874,2.25c3.490387,1.918549 7.160919,3.488281 8.156769,3.488281c0.995819,0 2.597595,0.869629 3.559509,1.932556c0.961914,1.062897 2.381653,1.689758 3.154999,1.393005c1.01712,-0.390289 1.406036,0.297302 1.406036,2.485779c0,2.132782 -1.312653,4.563141 -4.44928,8.237793c-2.447083,2.866852 -4.753967,6.616119 -5.126373,8.331665c-1.026947,4.730682 -5.513885,10.441772 -9.174347,11.677307c-1.787506,0.603333 -3.25,1.726715 -3.25,2.496399c0,0.769653 -1.237488,2.194977 -2.75,3.167389c-1.512512,0.972412 -3.561554,2.77182 -4.553406,3.998688c-4.91098,6.074493 -10.261322,10.335052 -12.487274,9.943817c-1.727264,-0.303589 -2.219208,0.019318 -2.000061,1.312866c0.311554,1.838959 -1.842651,5.022736 -3.398468,5.022736c-0.519348,0 -3.389343,2.11087 -6.377716,4.690887c-3.609314,3.116028 -5.031647,4.939178 -4.236664,5.430481c0.840149,0.519257 0.467712,1.35614 -1.249817,2.808472c-2.293732,1.939575 -2.33725,2.153839 -0.696594,3.429718c0.962494,0.748505 1.75,1.596313 1.75,1.884033c0,1.26825 -3.777985,1.307251 -6.789185,0.070068zm-4.023315,-171.99678c-0.721893,-0.288864 -1.584381,-0.253342 -1.916656,0.078949c-0.332306,0.332291 0.258331,0.568634 1.3125,0.525208c1.164948,-0.047974 1.401886,-0.284927 0.604156,-0.604156zm6.777069,-4.535492c0.01947,-0.395248 -0.639557,-0.45961 -1.464569,-0.143021c-0.876526,0.336349 -1.506348,0.011581 -1.51532,-0.781387c-0.012482,-1.105652 -0.180389,-1.096222 -0.906586,0.050919c-0.540588,0.853882 -0.461548,2.351151 0.200775,3.80481l1.092102,2.396896l1.279083,-2.30481c0.703491,-1.267639 1.295013,-2.628189 1.314514,-3.023407zm-31.964569,2.811981c0,-0.199844 -1.028595,-1.037323 -2.285767,-1.861053c-2.050415,-1.343475 -2.498352,-1.325562 -4.35025,0.174026c-2.007874,1.625885 -1.94519,1.67691 2.285767,1.861053c2.392639,0.104126 4.35025,0.025818 4.35025,-0.174026zm-2.40506,-5.147614c-1.814606,-1.326874 -1.819,-1.422546 -0.095367,-2.083969c0.993622,-0.381287 3.495239,-0.242538 5.559143,0.30835c3.183472,0.849716 3.665283,0.774139 3.176971,-0.498306c-0.372559,-0.970901 -0.165741,-1.246628 0.586456,-0.781754c0.639099,0.394989 1.953064,0.257492 2.919952,-0.305557c1.596588,-0.929779 1.562927,-1.026489 -0.367096,-1.054123c-1.628876,-0.0233 -2.125,-0.654221 -2.125,-2.702408c0,-1.46962 -0.84375,-3.288986 -1.875,-4.04306c-1.03125,-0.754059 -1.762512,-1.57666 -1.625,-1.827988c0.6922,-1.265213 0.085876,-2.45694 -1.25,-2.45694c-0.825012,0 -1.5,-0.487503 -1.5,-1.083344c0,-0.59584 -0.5625,-0.881638 -1.25,-0.635132c-0.6875,0.246521 -2.04834,0.037384 -3.024109,-0.464737c-1.377472,-0.708862 -2.347992,-0.230911 -4.341125,2.137802c-1.411896,1.677917 -2.928894,2.827148 -3.371124,2.553833c-0.44223,-0.273315 -1.060028,0.170074 -1.372864,0.985321c-0.312836,0.815231 -0.247498,1.382462 0.145203,1.260483c0.3927,-0.121979 1.971527,1.048889 3.508484,2.601929c1.748474,1.766754 3.392029,2.594391 4.3909,2.21109c2.062408,-0.791428 5.515961,0.298004 4.770142,1.504745c-0.31543,0.510406 -1.248535,0.928009 -2.073547,0.928009c-0.879181,0 -1.204681,-0.477829 -0.786469,-1.15451c0.445618,-0.721054 0.273926,-0.882828 -0.457275,-0.430908c-0.643951,0.39798 -0.911957,1.142517 -0.59549,1.65451c0.316406,0.511993 0.098755,0.930908 -0.483704,0.930908c-0.582458,0 -1.059021,-0.450012 -1.059021,-1c0,-1.759445 -3.748718,-1.068954 -4.232086,0.779526c-0.549591,2.101563 1.779449,4.761841 2.76825,3.161957c0.443726,-0.717972 1.028717,-0.717575 1.894867,0.001282c0.689148,0.57193 1.549072,0.743774 1.91098,0.381882c0.361877,-0.361893 0.65799,-0.057983 0.65799,0.675354c0,0.733322 0.336792,0.996536 0.748444,0.5849c0.411621,-0.411636 -0.107452,-1.374252 -1.153503,-2.139145zm7.40506,-5.386749c0,-0.517532 0.444855,-1.215912 0.988556,-1.551941c0.566864,-0.350327 0.734497,0.051071 0.393005,0.940994c-0.664795,1.732407 -1.381561,2.049377 -1.381561,0.610947zm-12.558868,-2.527206c-1.067627,-0.80751 -1.415436,-1.482513 -0.772919,-1.5c1.89978,-0.051727 4.331787,1.113358 4.331787,2.07518c0,1.310562 -1.355286,1.091522 -3.558868,-0.57518zm33.558868,9.753372c0,-0.118134 -0.852753,-0.671188 -1.894989,-1.228973c-1.351074,-0.723068 -2.187775,-0.661423 -2.914978,0.214798c-0.766998,0.924179 -0.296997,1.228989 1.89502,1.228989c1.60321,0 2.914948,-0.096664 2.914948,-0.214813zm-15,-2.285172c0,-0.550003 -0.701569,-1 -1.559021,-1c-0.857452,0 -1.280884,0.449997 -0.940979,1c0.339935,0.549988 1.041473,1 1.559021,1c0.517548,0 0.940979,-0.450012 0.940979,-1zm3.5,0c-0.339905,-0.550003 -0.816467,-1 -1.059021,-1c-0.242523,0 -0.440979,0.449997 -0.440979,1c0,0.549988 0.476563,1 1.059021,1c0.582458,0 0.780914,-0.450012 0.440979,-1zm-32.5,-5.033325c-1.268646,-0.848038 -1.075897,-1.378067 1.25,-3.436707c1.512512,-1.33873 2.75,-2.991638 2.75,-3.673141c0,-0.681503 -0.638214,-0.366287 -1.418243,0.70047c-0.780029,1.066757 -1.755035,1.602753 -2.166656,1.191132c-0.411652,-0.411652 -0.223419,-0.748428 0.418243,-0.748428c0.641663,0 1.166656,-0.675003 1.166656,-1.500015c0,-1.940796 -1.892029,-1.944931 -2.636169,-0.005737c-0.315369,0.821838 -0.983582,1.240738 -1.484924,0.930908c-0.501343,-0.30986 -0.652649,-0.982269 -0.336212,-1.494263c0.316437,-0.511993 0.125336,-0.930893 -0.424652,-0.930893c-0.550018,0 -1.282654,0.457336 -1.628113,1.016296c-0.345459,0.558975 -1.095093,0.727722 -1.665802,0.375c-0.669037,-0.413483 -0.555664,-0.946701 0.319122,-1.500992c1.104736,-0.699997 1.078125,-0.855957 -0.14325,-0.839569c-1.898621,0.025482 -6.958954,2.865967 -5.190979,2.913818c0.719971,0.019485 1.056824,0.443466 0.748627,0.942184c-0.308228,0.498703 0.452728,0.695511 1.690979,0.437317l2.251373,-0.469406l-2.30481,1.377182l-2.30481,1.377197l2.778046,1.265747c2.003998,0.913086 2.882263,0.95314 3.152069,0.143753c0.269928,-0.809799 0.777496,-0.787125 1.824097,0.081451c1.168671,0.969925 1.198334,1.363174 0.15274,2.026428c-0.845001,0.536026 -0.251373,0.822952 1.702667,0.822952c2.335999,0 2.667999,-0.221924 1.5,-1.002686zm-3.789429,-3.57164c-1.428894,-1.545929 -0.463959,-1.841782 1.646179,-0.50473c0.746216,0.472824 0.971222,1.093704 0.5,1.37973c-0.471222,0.286011 -1.436981,-0.107727 -2.146179,-0.875zm39.255096,-0.245178c-0.563446,-0.59314 -2.465668,0.910141 -2.465668,1.948578c0,0.53923 0.629608,0.400162 1.399139,-0.309006c0.769531,-0.709198 1.249481,-1.446991 1.066528,-1.639572zm-28.465668,1.457123c0,-0.216156 -0.698364,-0.660995 -1.551941,-0.988541c-0.889923,-0.341492 -1.291321,-0.173859 -0.940979,0.393005c0.58725,0.950211 2.49292,1.405441 2.49292,0.595535zm-15.214478,-10.146713c0.864227,-0.752609 0.369385,-1.019958 -1.791962,-0.968109c-1.642242,0.039383 -3.775116,0.942261 -4.739746,2.006378c-1.717957,1.895233 -1.709839,1.898361 0.396912,0.152985c2.236816,-1.853149 4.061279,-0.824142 2.834137,1.59848c-0.348267,0.687485 -0.016693,0.574997 0.736755,-0.25c0.753479,-0.825012 1.907227,-1.96788 2.563904,-2.539734zm8.214478,1.480713c0,-0.582474 -0.450012,-0.780914 -1,-0.440994c-0.549988,0.33992 -1,0.816483 -1,1.059021c0,0.242554 0.450012,0.440994 1,0.440994c0.549988,0 1,-0.476563 1,-1.059021zm-5.269043,-7.633972c-0.972961,-0.25354 -2.322968,-0.236877 -3,0.037048c-0.677002,0.273926 0.119049,0.481369 1.769043,0.460983c1.649994,-0.02037 2.203949,-0.244492 1.230957,-0.498032zm7.795502,-1.113892c-0.307892,-0.307877 -1.114777,-0.000626 -1.793121,0.682785c-0.980255,0.987625 -0.865417,1.102478 0.559784,0.559799c0.986237,-0.375534 1.541229,-0.934692 1.233337,-1.242584zm11.473541,-1.252136c0,-0.517548 -0.375,-0.940979 -0.833344,-0.940979c-0.458313,0 -0.833313,0.655197 -0.833313,1.456009c0,0.800797 0.375,1.224243 0.833313,0.940979c0.458344,-0.283264 0.833344,-0.938477 0.833344,-1.456009zm-4.011047,-1.961655c-0.594788,-1.111359 -0.749237,-2.573868 -0.343231,-3.25c0.464569,-0.773636 0.101685,-0.71283 -0.979004,0.164047c-1.609039,1.305634 -1.611359,1.5103 -0.036957,3.25c2.189636,2.419525 2.708344,2.356903 1.359192,-0.164047zm-5.072296,0.661346c-0.229156,-0.197632 -1.766663,-0.661301 -3.416656,-1.03038c-2.190918,-0.490067 -2.595459,-0.397293 -1.5,0.344009c1.350372,0.913818 5.920166,1.551758 4.916656,0.686371zm-8.916656,-2.732117c1.333344,-0.942947 1.333344,-1.011826 0,-0.619827c-0.825012,0.242554 -2.399994,-0.021851 -3.5,-0.587585c-1.787872,-0.919495 -1.854431,-0.852112 -0.627563,0.635132c1.598145,1.937332 2.099152,2.00679 4.127563,0.572281zm5,-1.377167c0,-0.929153 -0.581787,-1.245361 -1.583862,-0.86084c-1.275208,0.489349 -1.323914,0.772522 -0.25,1.453293c1.776154,1.125885 1.833862,1.107239 1.833862,-0.592453zm26.399994,-0.531387c3.928711,0 -0.092377,-2.19249 -4.426971,-2.413803c-2.613159,-0.133408 -4.699921,-0.859802 -5.461304,-1.901062c-1.782013,-2.437042 -2.511719,-2.08226 -2.511719,1.221237c0,2.382904 0.348999,2.815109 1.937714,2.399658c1.065735,-0.278702 2.9599,0.209259 4.209259,1.084351c1.500214,1.050797 2.608002,1.254654 3.262299,0.600342c0.544891,-0.544907 1.890717,-0.990723 2.990723,-0.990723zm-22.399994,0c0,-0.550003 -0.476563,-1 -1.059021,-1c-0.582458,0 -0.780884,0.449997 -0.440979,1c0.339935,0.549988 0.816467,1 1.059021,1c0.242554,0 0.440979,-0.450012 0.440979,-1zm27.1875,-9.683121c-0.721863,-0.288864 -1.584381,-0.253342 -1.916656,0.078949c-0.332306,0.332291 0.258331,0.568634 1.3125,0.525208c1.164948,-0.047974 1.401886,-0.284927 0.604156,-0.604156zm26.506348,219.043625c-1.066345,-1.066345 0.297516,-2.360504 2.48761,-2.360504c1.720795,0 1.856689,0.249084 0.818542,1.5c-1.344269,1.61972 -2.298553,1.868103 -3.306152,0.860504zm-107.193848,-24.325073c-2.75,-3.205414 -5.181458,-5.655701 -5.403244,-5.445129c-0.221771,0.210571 -1.470551,-1.063812 -2.77504,-2.83194c-2.425629,-3.287781 -5.795532,-5.659729 -8.130737,-5.722931c-0.719955,-0.019501 -1.042053,0.396515 -0.715744,0.924469c0.354401,0.573456 -0.615799,0.538452 -2.409698,-0.086914c-2.343277,-0.816864 -3.694839,-2.510529 -6.152618,-7.7099c-5.065079,-10.715118 -5.125595,-10.978912 -2.80368,-12.221558c1.166519,-0.624298 1.811127,-1.706696 1.49971,-2.518219c-0.3004,-0.782837 -0.110291,-1.423309 0.42244,-1.423309c0.53273,0 0.968613,-0.703308 0.968613,-1.562866c0,-1.046783 0.742996,-1.459564 2.25,-1.25c1.560822,0.217041 2.253906,-0.201538 2.262756,-1.366547c0.007019,-0.923706 0.344513,-2.0112 0.75,-2.416687c0.405487,-0.405487 0.737244,-0.247986 0.737244,0.349976c0,0.597961 1.350006,1.383728 3,1.746124c1.649994,0.362396 3,1.225922 3,1.918945c0,0.692993 1.237503,1.88031 2.75,2.638458c1.512497,0.758118 2.998047,1.513031 3.301193,1.677582c0.303162,0.16452 0.366425,-1.283539 0.140594,-3.217926c-0.503098,-4.309387 1.382507,-4.731781 2.308212,-0.517059c0.362396,1.649994 1.038254,3 1.501892,3c0.463654,0 1.394379,1.6875 2.068298,3.75c0.67392,2.0625 2.171326,4.720093 3.327576,5.905792c3.012451,3.089203 4.602234,5.152588 4.602234,5.973236c0,0.392426 0.709045,1.496979 1.575653,2.454559c2.105194,2.326202 2.603394,9.822693 0.821838,12.366241c-0.768616,1.097351 -1.397491,2.786469 -1.397491,3.753601c0,1.050873 -1.026062,2.015991 -2.549866,2.398438c-2.519348,0.632294 -2.52533,0.657166 -0.5,2.075745c2.001434,1.401855 2.795715,3.390289 1.299866,3.254089c-0.412506,-0.037537 -3,-2.690887 -5.75,-5.896271zm7.845093,-15.578583c-0.325714,-0.848694 -0.806641,-1.328644 -1.068756,-1.066528c-0.262146,0.262146 -0.179993,0.956543 0.182556,1.543152c0.986023,1.595459 1.562378,1.285492 0.8862,-0.476624zm9.210938,19.633789c-0.594879,-0.962555 7.073639,-5.079956 9.509705,-5.105957c1.201691,-0.012817 1.19104,-0.172485 -0.065735,-0.98468c-1.181549,-0.76358 -1.208099,-0.972626 -0.125,-0.984711c0.99292,-0.011047 1.208282,-0.848938 0.774994,-3.015289c-0.33844,-1.692322 -0.174988,-3 0.375,-3c0.536255,0 0.975006,0.449982 0.975006,1c0,0.549988 0.941254,1.941223 2.091644,3.091644l2.091675,2.091644l-2.341675,1.651062c-1.287903,0.908051 -2.56665,1.655029 -2.841644,1.659882c-0.274994,0.004883 -1.919464,1.02066 -3.654358,2.257324c-3.316345,2.363861 -5.847687,2.863129 -6.789612,1.339081zm9.643982,-24.290649c-0.660004,-0.660004 -1.200012,-1.559998 -1.200012,-2c0,-1.473389 1.506165,-0.820404 2.767944,1.200012c1.367432,2.189636 0.343903,2.711853 -1.567932,0.799988zm157.296692,-1.049988c0.401459,-1.237518 1.139984,-7.200012 1.641113,-13.25c0.539459,-6.51236 1.548737,-12.143158 2.473938,-13.802032c1.315735,-2.35907 1.376221,-3.57962 0.382721,-7.721039c-0.656158,-2.735138 -0.877869,-6.707733 -0.499359,-8.947968c0.614319,-3.6362 0.477142,-4.028961 -1.407227,-4.028961c-1.18924,0 -2.087891,-0.64563 -2.087891,-1.5c0,-1.890289 -1.920654,-1.874542 -4.44754,0.036469c-1.071136,0.810089 -2.741638,1.220856 -3.712219,0.912811c-0.970581,-0.308044 -2.633606,-0.095062 -3.695587,0.473297c-2.508423,1.342468 -6.81485,-1.889008 -8.777618,-6.586548c-0.764832,-1.830505 -1.947784,-3.217453 -2.628815,-3.082108c-0.884888,0.175858 -1.23822,-1.652664 -1.23822,-6.407944c0,-3.659698 0.354065,-6.43541 0.786835,-6.168213c0.43277,0.267181 0.692352,-1.013519 0.576843,-2.845993c-0.115479,-1.832474 0.65036,-4.906784 1.701874,-6.831772c1.051483,-1.925003 1.917511,-4.175003 1.924438,-5c0.006958,-0.825012 0.462036,-1.436966 1.011322,-1.359924c1.376251,0.193039 6.746307,-3.7258 6.054077,-4.41803c-0.307861,-0.307861 0.185974,-1.383774 1.097412,-2.3909c0.911438,-1.007141 1.307343,-1.831146 0.87973,-1.831146c-0.427582,0 -0.159821,-0.787506 0.595032,-1.75c1.243866,-1.586075 1.208496,-1.621445 -0.377563,-0.377563c-0.962494,0.754852 -1.806244,1.092346 -1.875,0.75c-0.068756,-0.342346 -0.191345,-1.184952 -0.27243,-1.872452c-0.081085,-0.6875 -0.989349,-1.102966 -2.018311,-0.923248c-1.658386,0.289642 -1.78772,-0.107864 -1.138947,-3.5c0.402557,-2.104721 0.693359,-4.884338 0.64621,-6.176941c-0.133514,-3.661514 0.782013,-4.266556 3.96524,-2.620453c2.740295,1.417068 2.943237,1.395737 2.943237,-0.309387c0,-1.007278 -1.125,-3.356247 -2.5,-5.219955c-2.975555,-4.033157 -2.988312,-4.090775 -0.75,-3.386993c1.583527,0.49791 1.59787,0.423569 0.150757,-0.781372c-1.734467,-1.44426 -1.843384,-1.718658 -2.016754,-5.08165c-0.08728,-1.693161 -0.229187,-1.81691 -0.573334,-0.499985c-0.251526,0.962494 -1.046844,1.75 -1.767365,1.75c-1.83783,0 -2.722656,-3.993958 -1.028809,-4.643936c0.747559,-0.286865 1.112549,-1.164444 0.811035,-1.950165c-0.398102,-1.037399 -0.059418,-1.241028 1.236725,-0.743637c1.39978,0.53714 1.64209,0.312592 1.122803,-1.040604c-0.417297,-1.087463 -0.271393,-1.484039 0.394562,-1.072449c0.581207,0.359192 0.803528,1.312912 0.494049,2.11937c-0.309448,0.806442 0.547882,3.455399 1.905182,5.886551c1.3573,2.431168 2.240875,5.213318 1.963562,6.182571c-0.28653,1.001343 -0.006042,0.819656 0.649597,-0.420761c0.953857,-1.804611 0.766083,-2.810471 -1.08313,-5.802597c-1.230347,-1.990753 -2.042511,-3.814056 -1.804779,-4.051804c0.589172,-0.589142 6.421204,7.781494 7.257568,10.416718c0.370209,1.166412 1.000641,2.120743 1.40097,2.120743c1.531006,0 12.13736,23.609085 12.13736,27.017014c0,0.875931 -0.72583,0.581009 -2.038971,-0.828461c-1.831665,-1.966095 -3.961029,-2.904541 -3.961029,-1.745728c0,0.688339 4.151367,7.557175 4.567383,7.557175c0.20343,0 0.086731,-0.737793 -0.259308,-1.639542c-0.516296,-1.345428 -0.299469,-1.455032 1.208771,-0.610992c1.010834,0.565704 1.926361,1.865982 2.034485,2.889542c0.108154,1.023529 0.481964,3.210983 0.83075,4.860977c0.348785,1.650009 1.293304,7.604111 2.098969,13.231369c1.583435,11.059647 0.805878,25.32135 -2.070404,37.974152c-0.775848,3.413025 -1.413147,7.688049 -1.416229,9.5c-0.009338,5.515411 -1.958679,10.972382 -4.121643,11.537994c-1.083618,0.283386 -3.080841,2.707001 -4.438324,5.385864c-2.565887,5.063507 -4.204529,6.525269 -2.937744,2.620636zm6.686615,-95.966675c-0.71756,-0.71756 -1.183319,-0.776596 -1.183319,-0.150009c0,1.334793 1.182617,2.517395 1.850006,1.850006c0.28418,-0.284164 -0.015839,-1.049164 -0.666687,-1.699997zm-2.634399,-0.03334c-0.83609,-3.812851 -4.256958,-9.730988 -5.629944,-9.739822c-1.829193,-0.011765 -4.360657,4.16481 -3.709076,6.119522c0.243286,0.729813 1.308075,1.372208 2.366211,1.427567c5.197052,0.271866 6.41452,0.502167 6.305481,1.192734c-0.182831,1.157883 0.074402,2.250015 0.529938,2.250015c0.226318,0 0.288147,-0.562515 0.13739,-1.250015zm-140.54892,91.666672c0,-0.870819 0.534363,-1.405212 1.1875,-1.1875c1.854218,0.618073 2.161774,2.770844 0.395844,2.770844c-0.87085,0 -1.583344,-0.712494 -1.583344,-1.583344zm3.510071,-1.40036c-0.345459,-0.55896 0.073456,-1.016296 0.930908,-1.016296c1.756531,0 2.015167,0.600067 0.628113,1.457275c-0.511993,0.316437 -1.213531,0.118011 -1.559021,-0.440979zm-20.926605,-2.659424c-0.837189,-2.181671 0.274353,-3.195709 1.455597,-1.327911c1.182526,1.869843 1.207703,2.971039 0.067932,2.971039c-0.49115,0 -1.176758,-0.73941 -1.523529,-1.643127zm-8.583466,-10.3255c0,-0.532715 -0.674988,-0.709595 -1.5,-0.393005c-1.822632,0.699402 -1.987488,-0.988892 -0.238342,-2.440582c0.934723,-0.775726 1.558197,-0.418732 2.405914,1.377563c0.629364,1.333557 0.736603,2.424652 0.238342,2.424652c-0.49826,0 -0.905914,-0.435883 -0.905914,-0.968628zm-19.521362,-1.286621c-1.088257,-0.599854 -2.56665,-1.912842 -3.285339,-2.917694c-1.391113,-1.945099 -4.193298,-2.497772 -4.193298,-0.827057c0,0.549988 -0.899994,1 -2,1c-1.100006,0 -2,-0.450012 -2,-1c0,-0.550018 -0.899994,-1 -2,-1c-1.100006,0 -2,-0.450012 -2,-1c0,-0.550018 0.453812,-1 1.008469,-1c1.97464,0 -1.377274,-3.80545 -4.781998,-5.429047c-2.275467,-1.085114 -3.229233,-2.121368 -2.853546,-3.100403c0.335281,-0.873718 -0.019028,-1.470551 -0.872925,-1.470551c-0.866684,0 -1.208725,0.595428 -0.861633,1.5c0.418839,1.091461 -0.118332,1.5 -1.972351,1.5c-1.401398,0 -2.826096,-0.450012 -3.166016,-1c-0.33992,-0.550018 0.308517,-1 1.440979,-1c1.132462,0 2.115265,-0.450012 2.184021,-1c0.068756,-0.550018 0.181244,-1.412506 0.25,-1.916687c0.202698,-1.48642 1.625,-2.528839 1.625,-1.190979c0,0.674133 0.399017,0.979095 0.886688,0.677673c0.487686,-0.301392 1.44278,0.12204 2.122452,0.94101c0.679657,0.818939 0.865646,1.488983 0.413315,1.488983c-0.452347,0 -0.301529,0.520935 0.335159,1.157623c0.876831,0.876801 1.512589,0.863007 2.621002,-0.056885c1.174301,-0.974609 2.429703,-0.724823 6.355194,1.264374c2.690506,1.363373 5.481155,3.188965 6.201462,4.056885c0.720276,0.867889 2.549408,1.578003 4.064728,1.578003c2.783783,0 5.538147,-2.12854 4.324646,-3.34201c-0.361877,-0.361908 -0.159546,-0.65799 0.449677,-0.65799c2.132751,0 2.310364,1.992737 0.363831,4.082092c-1.316833,1.413422 -2.62384,1.898529 -3.966858,1.47226c-3.497955,-1.110199 -3.709961,1.575134 -0.360626,4.56778c3.271942,2.923462 3.072449,4.499207 -0.332031,2.62262zm11.907715,-2.92865c-0.465088,-0.752533 -0.176178,-0.949432 0.827759,-0.564178c0.848175,0.32547 1.996216,0.137726 2.551178,-0.417206c0.67865,-0.67865 1.228943,-0.653076 1.680847,0.078156c0.369568,0.5979 0.532837,1.120575 0.362885,1.161438c-3.173279,0.763092 -4.840546,0.683685 -5.422668,-0.258209zm-45.019516,-2.970154c-0.476761,-0.766663 -2.088501,-2.170654 -3.58165,-3.119965c-3.823303,-2.430725 -5.254196,-5.332031 -3.047363,-6.178894c0.935684,-0.359039 1.37645,-0.328033 0.979523,0.068909c-1.012482,1.012451 2.324768,4.475983 3.570801,3.705902c0.575317,-0.35556 0.717361,-0.139832 0.32547,0.494263c-0.42067,0.680634 0.308472,1.377167 1.84549,1.762909c2.73996,0.687714 2.983002,1.174683 1.64241,3.290894c-0.732697,1.156616 -1.002838,1.152893 -1.73468,-0.024017zm3.241867,-0.268646c0.300262,-0.782471 1.236252,-1.687561 2.079956,-2.011322c1.099655,-0.421997 1.360916,-0.137573 0.922684,1.004456c-0.336243,0.876221 -0.611343,1.781342 -0.611343,2.011353c0,0.230011 -0.660873,0.418213 -1.468613,0.418213c-0.859116,0 -1.24205,-0.590424 -0.922684,-1.422699zm38.391296,-0.577301c-1.348663,-2.52002 -0.221649,-2.52002 3,0c2.473572,1.934845 2.476593,1.95575 0.285187,1.977753c-1.21817,0.012238 -2.696472,-0.877747 -3.285187,-1.977753zm-32,-0.440979c0,-0.242554 0.449997,-0.719116 1,-1.059021c0.550003,-0.339935 1,-0.141479 1,0.440979c0,0.582458 -0.449997,1.059021 -1,1.059021c-0.550003,0 -1,-0.198456 -1,-0.440979zm3.582947,-1.424805c-0.430771,-0.697021 -0.513153,-1.537354 -0.18309,-1.867432c0.894958,-0.894958 1.870773,0.421295 1.38739,1.87146c-0.338715,1.016174 -0.574265,1.015381 -1.2043,-0.004028zm-13.90126,-3.785858c-0.374924,-0.374939 -0.734924,-2.744202 -0.800003,-5.265045c-0.09964,-3.859528 -0.218063,-4.11853 -0.75,-1.640015c-0.347427,1.618805 -0.969177,2.856323 -1.381683,2.75c-0.412506,-0.106323 -1.149918,-0.193298 -1.638702,-0.193298c-2.031372,0 -2.143494,-6.831512 -0.191101,-11.643158c1.919876,-4.731476 2.185928,-4.654907 2.58519,0.74411c0.283859,3.838593 1.441284,5.142395 4.111832,4.631866c1.566559,-0.299438 2.382782,0.010834 2.382782,0.905853c0,0.748718 -1.012497,1.389832 -2.25,1.424713l-2.25,0.063385l2.25,0.904388c1.237503,0.497406 2.243118,1.481384 2.234695,2.186615c-0.011795,0.986908 -0.213318,0.969727 -0.875,-0.074554c-0.472839,-0.746216 -1.111252,-0.949738 -1.418716,-0.45224c-0.307465,0.497467 -0.145599,1.558014 0.359695,2.35675c0.50528,0.798767 0.89006,2.127258 0.855072,2.952271c-0.04985,1.174805 -0.181168,1.204468 -0.605743,0.136841c-0.381699,-0.959808 -0.748413,-1.029327 -1.239365,-0.234955c-0.383484,0.620483 -1.004013,0.821411 -1.378952,0.446472zm99.48497,-3.348358c0.503357,-1.510071 2.11145,-1.66568 2.583344,-0.25c0.229156,0.6875 -0.333344,1.25 -1.25,1.25c-0.916656,0 -1.516663,-0.450012 -1.333344,-1zm-84.087708,-1.416687c-0.043411,-1.054138 0.192917,-1.644775 0.525223,-1.3125c0.332291,0.332306 0.367813,1.194794 0.078934,1.916687c-0.319214,0.797729 -0.556168,0.56076 -0.604156,-0.604187zm-24.646484,-5.833313c-1.145523,-9.37204 -1.161957,-9.799133 -0.395432,-10.272888c0.389969,-0.241028 1.018723,2.36554 1.397232,5.792328c0.37851,3.426788 0.934433,7.243042 1.235382,8.48056c0.300949,1.237488 0.092575,2.25 -0.463058,2.25c-0.555618,0 -1.353973,-2.8125 -1.774124,-6.25zm15.493225,6c-0.752075,-2.530212 -0.736282,-5.251343 0.038177,-6.578583c0.74498,-1.276703 0.982498,-0.667755 1.005722,2.578583c0.016739,2.337494 -0.194595,4.25 -0.469589,4.25c-0.274994,0 -0.533432,-0.112518 -0.57431,-0.25zm45.07431,-8.271454c0,-0.836792 -1.125,-2.034027 -2.5,-2.660492c-2.175568,-0.991272 -3.463257,-2.818054 -1.98642,-2.818054c0.922089,0 4.968323,2.475342 5.7211,3.5c1.065796,1.450653 0.928375,3.5 -0.23468,3.5c-0.549988,0 -1,-0.684662 -1,-1.521454zm-50,-6.478546c-0.725708,-1.355988 -0.73703,-2 -0.035172,-2c0.569336,0 1.035172,-0.701569 1.035172,-1.559021c0,-0.857468 0.449997,-1.280914 1,-0.940994c1.282242,0.79248 1.313126,6.500015 0.035187,6.500015c-0.530655,0 -1.446487,-0.899994 -2.035187,-2zm-4.984695,-3.190994c0.008423,-0.719955 0.451538,-1.984009 0.984695,-2.809006c0.788086,-1.219482 0.972244,-1.090256 0.984695,0.690979c0.008423,1.205032 -0.434692,2.469086 -0.984695,2.80899c-0.550003,0.339935 -0.993103,0.028992 -0.984695,-0.690964zm-6.144348,-3.059021c-0.396179,-9.977798 3.140594,-32.853195 5.192337,-33.583328c0.515182,-0.183334 0.936707,-1.343246 0.936707,-2.577591c0,-2.70929 4.651978,-14.557465 6.445694,-16.416611c1.061447,-1.100174 1.387924,-1.048447 1.906113,0.301941c0.39827,1.037872 0.227478,1.383621 -0.470398,0.952301c-0.725204,-0.448196 -0.876022,0.014893 -0.446075,1.369553c0.435303,1.371521 -0.002701,2.654419 -1.327774,3.888901c-2.104324,1.96048 -4.107559,6.384399 -4.107559,9.071075c0,1.358292 0.241745,1.306412 1.468201,-0.315109c0.807495,-1.067612 1.482498,-3.178619 1.5,-4.691132c0.017487,-1.512497 0.481796,-2.749985 1.031799,-2.749985c1.808044,0 1.044403,6.853928 -1.25,11.219208c-1.926895,3.666061 -2.295883,3.957687 -2.56955,2.030792c-0.175751,-1.237503 -0.685776,-2.25 -1.133362,-2.25c-1.951675,0 -2.909485,12.348969 -1.047089,13.499985c1.663422,1.028061 1.222305,4.799286 -0.484756,4.144241c-2.203033,-0.845398 -3.228149,2.048752 -3.313797,9.355774c-0.115738,9.874298 -0.130844,10 -1.201447,10c-0.550003,0 -1.058075,-1.462509 -1.129044,-3.250015zm9.356339,-0.158691c0.307251,-1.6073 0.058762,-2.254562 -0.746887,-1.945404c-1.584778,0.608139 -2.962097,-7.564209 -1.518173,-9.008133c0.71701,-0.71701 1.037766,-0.142899 1.037766,1.857513c0,1.770157 1.030762,3.971161 2.652451,5.663849c2.215225,2.31221 2.442307,3.021774 1.377563,4.304718c-1.905579,2.296082 -3.32402,1.854492 -2.802719,-0.872543zm117.572693,-16.791306c0.93335,-0.933319 1.466675,-0.933319 2.400024,0c0.933319,0.933334 0.666656,1.200012 -1.200012,1.200012c-1.866669,0 -2.133331,-0.266678 -1.200012,-1.200012zm6.200012,0.143021c0,-0.636353 0.637756,-0.912262 1.417236,-0.613144c0.77948,0.299103 1.6763,-0.131256 1.99295,-0.95639c0.348633,-0.908524 1.071503,-1.191605 1.832764,-0.717728c0.691376,0.430389 2.226563,0.657349 3.41153,0.504349c1.184967,-0.153015 2.449036,0.198364 2.809021,0.780853c0.365173,0.590851 -0.145233,1.086533 -1.15448,1.121231c-0.994965,0.03421 -3.721527,0.281708 -6.059021,0.550003c-2.832184,0.325073 -4.25,0.101837 -4.25,-0.669174zm13.799988,-0.143021c0.93335,-0.933319 1.466675,-0.933319 2.400024,0c0.933319,0.933334 0.666656,1.200012 -1.200012,1.200012c-1.866669,0 -2.133331,-0.266678 -1.200012,-1.200012zm-23.0737,-5.384399c-1.525543,-0.827377 -3.282562,-1.189819 -3.90451,-0.80545c-0.692139,0.42778 -0.854004,0.251022 -0.417267,-0.455643c0.453552,-0.733871 -0.058167,-1.154495 -1.40451,-1.154495c-1.164917,0 -1.899506,0.353561 -1.632446,0.785706c0.26709,0.432144 -0.381348,0.785721 -1.440979,0.785721c-2.660004,0 -2.413483,-1.392456 0.479919,-2.71077c1.941742,-0.88472 3.583252,-0.640167 8.5,1.266342c5.990143,2.322739 7.790924,3.911819 4.343506,3.832947c-0.962494,-0.022018 -2.998169,-0.71698 -4.523712,-1.544357zm89.273712,-13.356583c0,-0.582458 0.450012,-1.059006 1,-1.059006c0.549988,0 1,0.198425 1,0.440979c0,0.242538 -0.450012,0.719086 -1,1.059006c-0.549988,0.33992 -1,0.141495 -1,-0.440979zm2,-18.5c0,-0.242538 0.450012,-0.719101 1,-1.059021c0.549988,-0.33992 1,-0.141479 1,0.440994c0,0.582458 -0.450012,1.059021 -1,1.059021c-0.549988,0 -1,-0.198441 -1,-0.440994zm-198,-4.940979c0,-0.824997 0.449997,-1.778122 1,-2.118042c0.550003,-0.33992 1,0.056976 1,0.881973c0,0.824997 -0.449997,1.778107 -1,2.118027c-0.550003,0.33992 -1,-0.056961 -1,-0.881958zm4,-0.059021c0,-0.242538 0.449997,-0.719101 1,-1.059021c0.550003,-0.33992 1,-0.141479 1,0.440994c0,0.582458 -0.449997,1.059021 -1,1.059021c-0.550003,0 -1,-0.198441 -1,-0.440994zm6,-5.5c0,-0.582458 0.449997,-1.059006 1,-1.059006c0.550003,0 1,0.198425 1,0.440979c0,0.242538 -0.449997,0.719086 -1,1.059006c-0.550003,0.33992 -1,0.141495 -1,-0.440979zm1.477264,-9.09581c-0.338501,-0.547699 -1.146866,-0.677109 -1.796356,-0.287552c-0.672745,0.403488 -0.590317,-0.019806 0.191528,-0.983688c1.427246,-1.759506 4.645401,-2.281143 5.50386,-0.89212c0.271881,0.439926 -0.355698,1.330704 -1.394623,1.979523c-1.220108,0.761978 -2.106873,0.827072 -2.50441,0.183838zm132.212006,-14.077301c-0.995911,-0.5793 -2.481781,-0.795761 -3.301941,-0.481049c-0.842041,0.32312 -1.22525,0.141891 -0.880249,-0.416306c0.336029,-0.543701 0.059387,-0.988541 -0.614716,-0.988541c-2.216949,0 0.045685,-1.323883 2.756592,-1.612915c3.114105,-0.332016 8.681641,2.268982 7.824738,3.655502c-0.770264,1.246262 -3.499664,1.172318 -5.784424,-0.156693z"/>
  </g>
 </g>
</svg>